<mxfile host="app.diagrams.net" modified="2021-06-22T05:53:00.111Z" agent="5.0 (Windows NT 10.0; Win64; x64) AppleWebKit/537.36 (KHTML, like Gecko) Chrome/91.0.4472.106 Safari/537.36" etag="prDZcfsqJ6MVEeX1Ab3m" version="14.8.0" type="github">
  <diagram id="xdmNpZfuZ09Qve0HVb8N" name="Page-1">
    <mxGraphModel dx="711" dy="381" grid="1" gridSize="10" guides="1" tooltips="1" connect="1" arrows="1" fold="1" page="1" pageScale="1" pageWidth="827" pageHeight="1169" math="0" shadow="0">
      <root>
        <mxCell id="0" />
        <mxCell id="1" parent="0" />
        <mxCell id="Wk8KGpnJFXNVMbtwx-w3-9" style="edgeStyle=orthogonalEdgeStyle;rounded=0;orthogonalLoop=1;jettySize=auto;html=1;exitX=0.5;exitY=0;exitDx=0;exitDy=0;exitPerimeter=0;entryX=0.5;entryY=1;entryDx=0;entryDy=0;entryPerimeter=0;" parent="1" source="Wk8KGpnJFXNVMbtwx-w3-1" target="Wk8KGpnJFXNVMbtwx-w3-2" edge="1">
          <mxGeometry relative="1" as="geometry">
            <Array as="points">
              <mxPoint x="260" y="130" />
              <mxPoint x="440" y="130" />
            </Array>
          </mxGeometry>
        </mxCell>
        <mxCell id="Wk8KGpnJFXNVMbtwx-w3-1" value="" style="verticalLabelPosition=bottom;verticalAlign=top;html=1;shape=mxgraph.basic.patternFillRect;fillStyle=diagGrid;step=5;fillStrokeWidth=0.2;fillStrokeColor=#dddddd;rotation=90;" parent="1" vertex="1">
          <mxGeometry x="190" y="130" width="120" height="20" as="geometry" />
        </mxCell>
        <mxCell id="Wk8KGpnJFXNVMbtwx-w3-12" style="edgeStyle=orthogonalEdgeStyle;rounded=0;orthogonalLoop=1;jettySize=auto;html=1;exitX=0.75;exitY=1;exitDx=0;exitDy=0;exitPerimeter=0;entryX=0.75;entryY=0;entryDx=0;entryDy=0;entryPerimeter=0;" parent="1" source="Wk8KGpnJFXNVMbtwx-w3-2" target="Wk8KGpnJFXNVMbtwx-w3-1" edge="1">
          <mxGeometry relative="1" as="geometry">
            <Array as="points">
              <mxPoint x="350" y="170" />
              <mxPoint x="350" y="170" />
            </Array>
          </mxGeometry>
        </mxCell>
        <mxCell id="Wk8KGpnJFXNVMbtwx-w3-2" value="" style="verticalLabelPosition=bottom;verticalAlign=top;html=1;shape=mxgraph.basic.patternFillRect;fillStyle=diagGrid;step=5;fillStrokeWidth=0.2;fillStrokeColor=#dddddd;rotation=90;" parent="1" vertex="1">
          <mxGeometry x="390" y="130" width="120" height="20" as="geometry" />
        </mxCell>
        <mxCell id="Wk8KGpnJFXNVMbtwx-w3-10" value="start request" style="text;html=1;align=center;verticalAlign=middle;resizable=0;points=[];autosize=1;strokeColor=none;" parent="1" vertex="1">
          <mxGeometry x="310" y="100" width="80" height="20" as="geometry" />
        </mxCell>
        <mxCell id="Wk8KGpnJFXNVMbtwx-w3-14" value="response" style="text;html=1;align=center;verticalAlign=middle;resizable=0;points=[];autosize=1;strokeColor=none;" parent="1" vertex="1">
          <mxGeometry x="310" y="150" width="60" height="20" as="geometry" />
        </mxCell>
        <mxCell id="Wk8KGpnJFXNVMbtwx-w3-16" value="" style="verticalLabelPosition=bottom;verticalAlign=top;html=1;shape=mxgraph.basic.patternFillRect;fillStyle=diagGrid;step=5;fillStrokeWidth=0.2;fillStrokeColor=#dddddd;rotation=90;" parent="1" vertex="1">
          <mxGeometry x="390" y="290" width="120" height="20" as="geometry" />
        </mxCell>
        <mxCell id="Wk8KGpnJFXNVMbtwx-w3-18" style="edgeStyle=orthogonalEdgeStyle;rounded=0;orthogonalLoop=1;jettySize=auto;html=1;exitX=0.25;exitY=0;exitDx=0;exitDy=0;exitPerimeter=0;entryX=0.25;entryY=1;entryDx=0;entryDy=0;entryPerimeter=0;" parent="1" source="Wk8KGpnJFXNVMbtwx-w3-17" target="Wk8KGpnJFXNVMbtwx-w3-16" edge="1">
          <mxGeometry relative="1" as="geometry" />
        </mxCell>
        <mxCell id="Wk8KGpnJFXNVMbtwx-w3-19" style="edgeStyle=orthogonalEdgeStyle;rounded=0;orthogonalLoop=1;jettySize=auto;html=1;exitX=0.5;exitY=0;exitDx=0;exitDy=0;exitPerimeter=0;entryX=0.5;entryY=1;entryDx=0;entryDy=0;entryPerimeter=0;" parent="1" source="Wk8KGpnJFXNVMbtwx-w3-17" target="Wk8KGpnJFXNVMbtwx-w3-16" edge="1">
          <mxGeometry relative="1" as="geometry" />
        </mxCell>
        <mxCell id="Wk8KGpnJFXNVMbtwx-w3-20" style="edgeStyle=orthogonalEdgeStyle;rounded=0;orthogonalLoop=1;jettySize=auto;html=1;exitX=0.75;exitY=0;exitDx=0;exitDy=0;exitPerimeter=0;entryX=0.75;entryY=1;entryDx=0;entryDy=0;entryPerimeter=0;" parent="1" edge="1">
          <mxGeometry relative="1" as="geometry">
            <mxPoint x="260" y="321" as="sourcePoint" />
            <mxPoint x="440" y="321" as="targetPoint" />
          </mxGeometry>
        </mxCell>
        <mxCell id="Wk8KGpnJFXNVMbtwx-w3-17" value="" style="verticalLabelPosition=bottom;verticalAlign=top;html=1;shape=mxgraph.basic.patternFillRect;fillStyle=diagGrid;step=5;fillStrokeWidth=0.2;fillStrokeColor=#dddddd;rotation=90;" parent="1" vertex="1">
          <mxGeometry x="190" y="290" width="120" height="20" as="geometry" />
        </mxCell>
        <mxCell id="Wk8KGpnJFXNVMbtwx-w3-21" value="" style="endArrow=classic;html=1;exitX=0.917;exitY=1;exitDx=0;exitDy=0;exitPerimeter=0;" parent="1" source="Wk8KGpnJFXNVMbtwx-w3-16" edge="1">
          <mxGeometry width="50" height="50" relative="1" as="geometry">
            <mxPoint x="350" y="350" as="sourcePoint" />
            <mxPoint x="260" y="350" as="targetPoint" />
          </mxGeometry>
        </mxCell>
        <mxCell id="Wk8KGpnJFXNVMbtwx-w3-22" value="binary request" style="text;html=1;align=center;verticalAlign=middle;resizable=0;points=[];autosize=1;strokeColor=none;" parent="1" vertex="1">
          <mxGeometry x="295" y="250" width="90" height="20" as="geometry" />
        </mxCell>
        <mxCell id="Wk8KGpnJFXNVMbtwx-w3-23" value="binary request" style="text;html=1;align=center;verticalAlign=middle;resizable=0;points=[];autosize=1;strokeColor=none;" parent="1" vertex="1">
          <mxGeometry x="300" y="280" width="90" height="20" as="geometry" />
        </mxCell>
        <mxCell id="Wk8KGpnJFXNVMbtwx-w3-24" value="binary request" style="text;html=1;align=center;verticalAlign=middle;resizable=0;points=[];autosize=1;strokeColor=none;" parent="1" vertex="1">
          <mxGeometry x="300" y="303" width="90" height="20" as="geometry" />
        </mxCell>
        <mxCell id="Wk8KGpnJFXNVMbtwx-w3-25" value="response" style="text;html=1;align=center;verticalAlign=middle;resizable=0;points=[];autosize=1;strokeColor=none;" parent="1" vertex="1">
          <mxGeometry x="320" y="350" width="60" height="20" as="geometry" />
        </mxCell>
        <mxCell id="Wk8KGpnJFXNVMbtwx-w3-28" value="" style="endArrow=none;dashed=1;html=1;dashPattern=1 3;strokeWidth=2;exitX=0;exitY=0.5;exitDx=0;exitDy=0;exitPerimeter=0;" parent="1" source="Wk8KGpnJFXNVMbtwx-w3-17" edge="1">
          <mxGeometry width="50" height="50" relative="1" as="geometry">
            <mxPoint x="200" y="250" as="sourcePoint" />
            <mxPoint x="250" y="200" as="targetPoint" />
          </mxGeometry>
        </mxCell>
        <mxCell id="Wk8KGpnJFXNVMbtwx-w3-29" value="" style="endArrow=none;dashed=1;html=1;dashPattern=1 3;strokeWidth=2;exitX=0;exitY=0.5;exitDx=0;exitDy=0;exitPerimeter=0;" parent="1" edge="1">
          <mxGeometry width="50" height="50" relative="1" as="geometry">
            <mxPoint x="449.5" y="240" as="sourcePoint" />
            <mxPoint x="449.5" y="200" as="targetPoint" />
          </mxGeometry>
        </mxCell>
        <mxCell id="Wk8KGpnJFXNVMbtwx-w3-30" value="" style="endArrow=none;dashed=1;html=1;dashPattern=1 3;strokeWidth=2;exitX=0;exitY=0.5;exitDx=0;exitDy=0;exitPerimeter=0;" parent="1" edge="1">
          <mxGeometry width="50" height="50" relative="1" as="geometry">
            <mxPoint x="249.5" y="400" as="sourcePoint" />
            <mxPoint x="249.5" y="360" as="targetPoint" />
          </mxGeometry>
        </mxCell>
        <mxCell id="Wk8KGpnJFXNVMbtwx-w3-31" value="" style="endArrow=none;dashed=1;html=1;dashPattern=1 3;strokeWidth=2;exitX=0;exitY=0.5;exitDx=0;exitDy=0;exitPerimeter=0;" parent="1" edge="1">
          <mxGeometry width="50" height="50" relative="1" as="geometry">
            <mxPoint x="449.5" y="400" as="sourcePoint" />
            <mxPoint x="449.5" y="360" as="targetPoint" />
          </mxGeometry>
        </mxCell>
        <mxCell id="Wk8KGpnJFXNVMbtwx-w3-32" style="edgeStyle=orthogonalEdgeStyle;rounded=0;orthogonalLoop=1;jettySize=auto;html=1;exitX=0.5;exitY=0;exitDx=0;exitDy=0;exitPerimeter=0;entryX=0.5;entryY=1;entryDx=0;entryDy=0;entryPerimeter=0;fillColor=#f8cecc;strokeColor=#b85450;" parent="1" source="Wk8KGpnJFXNVMbtwx-w3-33" target="Wk8KGpnJFXNVMbtwx-w3-35" edge="1">
          <mxGeometry relative="1" as="geometry">
            <Array as="points">
              <mxPoint x="410" y="460" />
              <mxPoint x="410" y="460" />
            </Array>
          </mxGeometry>
        </mxCell>
        <mxCell id="Wk8KGpnJFXNVMbtwx-w3-33" value="" style="verticalLabelPosition=bottom;verticalAlign=top;html=1;shape=mxgraph.basic.patternFillRect;fillStyle=diagGrid;step=5;fillStrokeWidth=0.2;fillStrokeColor=#dddddd;rotation=90;fillColor=#f8cecc;strokeColor=#b85450;" parent="1" vertex="1">
          <mxGeometry x="190" y="450" width="120" height="20" as="geometry" />
        </mxCell>
        <mxCell id="Wk8KGpnJFXNVMbtwx-w3-34" style="edgeStyle=orthogonalEdgeStyle;rounded=0;orthogonalLoop=1;jettySize=auto;html=1;exitX=0.75;exitY=1;exitDx=0;exitDy=0;exitPerimeter=0;entryX=0.75;entryY=0;entryDx=0;entryDy=0;entryPerimeter=0;fillColor=#f8cecc;strokeColor=#b85450;" parent="1" source="Wk8KGpnJFXNVMbtwx-w3-35" target="Wk8KGpnJFXNVMbtwx-w3-33" edge="1">
          <mxGeometry relative="1" as="geometry">
            <Array as="points">
              <mxPoint x="350" y="490" />
              <mxPoint x="350" y="490" />
            </Array>
          </mxGeometry>
        </mxCell>
        <mxCell id="Wk8KGpnJFXNVMbtwx-w3-35" value="" style="verticalLabelPosition=bottom;verticalAlign=top;html=1;shape=mxgraph.basic.patternFillRect;fillStyle=diagGrid;step=5;fillStrokeWidth=0.2;fillStrokeColor=#dddddd;rotation=90;fillColor=#f8cecc;strokeColor=#b85450;shadow=0;" parent="1" vertex="1">
          <mxGeometry x="390" y="450" width="120" height="20" as="geometry" />
        </mxCell>
        <mxCell id="Wk8KGpnJFXNVMbtwx-w3-36" value="update vpr user" style="text;html=1;align=center;verticalAlign=middle;resizable=0;points=[];autosize=1;strokeColor=#b85450;fillColor=#f8cecc;" parent="1" vertex="1">
          <mxGeometry x="300" y="440" width="100" height="20" as="geometry" />
        </mxCell>
        <mxCell id="Wk8KGpnJFXNVMbtwx-w3-37" value="response" style="text;html=1;align=center;verticalAlign=middle;resizable=0;points=[];autosize=1;strokeColor=#b85450;fillColor=#f8cecc;" parent="1" vertex="1">
          <mxGeometry x="315" y="470" width="60" height="20" as="geometry" />
        </mxCell>
        <mxCell id="Wk8KGpnJFXNVMbtwx-w3-51" value="" style="verticalLabelPosition=bottom;verticalAlign=top;html=1;shape=mxgraph.basic.patternFillRect;fillStyle=diagGrid;step=5;fillStrokeWidth=0.2;fillStrokeColor=#dddddd;rotation=90;fillColor=#ffe6cc;strokeColor=#d79b00;shadow=0;" parent="1" vertex="1">
          <mxGeometry x="190" y="130" width="120" height="20" as="geometry" />
        </mxCell>
        <mxCell id="Wk8KGpnJFXNVMbtwx-w3-52" value="" style="verticalLabelPosition=bottom;verticalAlign=top;html=1;shape=mxgraph.basic.patternFillRect;fillStyle=diagGrid;step=5;fillStrokeWidth=0.2;fillStrokeColor=#dddddd;rotation=90;fillColor=#ffe6cc;strokeColor=#d79b00;shadow=0;" parent="1" vertex="1">
          <mxGeometry x="390" y="130" width="120" height="20" as="geometry" />
        </mxCell>
        <mxCell id="Wk8KGpnJFXNVMbtwx-w3-53" value="" style="verticalLabelPosition=bottom;verticalAlign=top;html=1;shape=mxgraph.basic.patternFillRect;fillStyle=diagGrid;step=5;fillStrokeWidth=0.2;fillStrokeColor=#dddddd;rotation=90;fillColor=#ffe6cc;strokeColor=#d79b00;shadow=0;" parent="1" vertex="1">
          <mxGeometry x="390" y="290" width="120" height="20" as="geometry" />
        </mxCell>
        <mxCell id="Wk8KGpnJFXNVMbtwx-w3-54" value="" style="verticalLabelPosition=bottom;verticalAlign=top;html=1;shape=mxgraph.basic.patternFillRect;fillStyle=diagGrid;step=5;fillStrokeWidth=0.2;fillStrokeColor=#dddddd;rotation=90;fillColor=#ffe6cc;strokeColor=#d79b00;shadow=0;" parent="1" vertex="1">
          <mxGeometry x="190" y="290" width="120" height="20" as="geometry" />
        </mxCell>
        <mxCell id="Wk8KGpnJFXNVMbtwx-w3-55" value="" style="verticalLabelPosition=bottom;verticalAlign=top;html=1;shape=mxgraph.basic.patternFillRect;fillStyle=diagGrid;step=5;fillStrokeWidth=0.2;fillStrokeColor=#dddddd;rotation=90;fillColor=#f8cecc;strokeColor=#b85450;shadow=0;" parent="1" vertex="1">
          <mxGeometry x="190" y="450" width="120" height="20" as="geometry" />
        </mxCell>
        <mxCell id="Wk8KGpnJFXNVMbtwx-w3-69" value="" style="verticalLabelPosition=bottom;verticalAlign=top;html=1;shape=mxgraph.basic.patternFillRect;fillStyle=diagGrid;step=5;fillStrokeWidth=0.2;fillStrokeColor=#dddddd;rotation=90;" parent="1" vertex="1">
          <mxGeometry x="390" y="610" width="120" height="20" as="geometry" />
        </mxCell>
        <mxCell id="Wk8KGpnJFXNVMbtwx-w3-70" style="edgeStyle=orthogonalEdgeStyle;rounded=0;orthogonalLoop=1;jettySize=auto;html=1;exitX=0.25;exitY=0;exitDx=0;exitDy=0;exitPerimeter=0;entryX=0.25;entryY=1;entryDx=0;entryDy=0;entryPerimeter=0;" parent="1" edge="1">
          <mxGeometry relative="1" as="geometry">
            <mxPoint x="260" y="588" as="sourcePoint" />
            <mxPoint x="440" y="588" as="targetPoint" />
          </mxGeometry>
        </mxCell>
        <mxCell id="Wk8KGpnJFXNVMbtwx-w3-71" style="edgeStyle=orthogonalEdgeStyle;rounded=0;orthogonalLoop=1;jettySize=auto;html=1;exitX=0.5;exitY=0;exitDx=0;exitDy=0;exitPerimeter=0;entryX=0.5;entryY=1;entryDx=0;entryDy=0;entryPerimeter=0;" parent="1" edge="1">
          <mxGeometry relative="1" as="geometry">
            <mxPoint x="260" y="613" as="sourcePoint" />
            <mxPoint x="440" y="613" as="targetPoint" />
          </mxGeometry>
        </mxCell>
        <mxCell id="Wk8KGpnJFXNVMbtwx-w3-72" style="edgeStyle=orthogonalEdgeStyle;rounded=0;orthogonalLoop=1;jettySize=auto;html=1;exitX=0.75;exitY=0;exitDx=0;exitDy=0;exitPerimeter=0;entryX=0.75;entryY=1;entryDx=0;entryDy=0;entryPerimeter=0;" parent="1" edge="1">
          <mxGeometry relative="1" as="geometry">
            <mxPoint x="260" y="639" as="sourcePoint" />
            <mxPoint x="440" y="639" as="targetPoint" />
          </mxGeometry>
        </mxCell>
        <mxCell id="Wk8KGpnJFXNVMbtwx-w3-73" value="" style="verticalLabelPosition=bottom;verticalAlign=top;html=1;shape=mxgraph.basic.patternFillRect;fillStyle=diagGrid;step=5;fillStrokeWidth=0.2;fillStrokeColor=#dddddd;rotation=90;" parent="1" vertex="1">
          <mxGeometry x="190" y="610" width="120" height="20" as="geometry" />
        </mxCell>
        <mxCell id="Wk8KGpnJFXNVMbtwx-w3-74" value="" style="endArrow=classic;html=1;exitX=0.917;exitY=1;exitDx=0;exitDy=0;exitPerimeter=0;" parent="1" source="Wk8KGpnJFXNVMbtwx-w3-69" edge="1">
          <mxGeometry width="50" height="50" relative="1" as="geometry">
            <mxPoint x="350" y="670" as="sourcePoint" />
            <mxPoint x="260" y="670" as="targetPoint" />
          </mxGeometry>
        </mxCell>
        <mxCell id="Wk8KGpnJFXNVMbtwx-w3-75" value="binary request" style="text;html=1;align=center;verticalAlign=middle;resizable=0;points=[];autosize=1;strokeColor=none;" parent="1" vertex="1">
          <mxGeometry x="295" y="566" width="90" height="20" as="geometry" />
        </mxCell>
        <mxCell id="Wk8KGpnJFXNVMbtwx-w3-76" value="binary request" style="text;html=1;align=center;verticalAlign=middle;resizable=0;points=[];autosize=1;strokeColor=none;" parent="1" vertex="1">
          <mxGeometry x="300" y="590" width="90" height="20" as="geometry" />
        </mxCell>
        <mxCell id="Wk8KGpnJFXNVMbtwx-w3-77" value="binary request" style="text;html=1;align=center;verticalAlign=middle;resizable=0;points=[];autosize=1;strokeColor=none;" parent="1" vertex="1">
          <mxGeometry x="300" y="617" width="90" height="20" as="geometry" />
        </mxCell>
        <mxCell id="Wk8KGpnJFXNVMbtwx-w3-78" value="response" style="text;html=1;align=center;verticalAlign=middle;resizable=0;points=[];autosize=1;strokeColor=none;" parent="1" vertex="1">
          <mxGeometry x="320" y="666" width="60" height="20" as="geometry" />
        </mxCell>
        <mxCell id="Wk8KGpnJFXNVMbtwx-w3-80" value="" style="verticalLabelPosition=bottom;verticalAlign=top;html=1;shape=mxgraph.basic.patternFillRect;fillStyle=diagGrid;step=5;fillStrokeWidth=0.2;fillStrokeColor=#dddddd;rotation=90;fillColor=#ffe6cc;strokeColor=#d79b00;shadow=0;" parent="1" vertex="1">
          <mxGeometry x="390" y="610" width="120" height="20" as="geometry" />
        </mxCell>
        <mxCell id="Wk8KGpnJFXNVMbtwx-w3-81" value="" style="verticalLabelPosition=bottom;verticalAlign=top;html=1;shape=mxgraph.basic.patternFillRect;fillStyle=diagGrid;step=5;fillStrokeWidth=0.2;fillStrokeColor=#dddddd;rotation=90;fillColor=#ffe6cc;strokeColor=#d79b00;shadow=0;" parent="1" vertex="1">
          <mxGeometry x="190" y="610" width="120" height="20" as="geometry" />
        </mxCell>
        <mxCell id="Wk8KGpnJFXNVMbtwx-w3-82" value="" style="endArrow=none;dashed=1;html=1;dashPattern=1 3;strokeWidth=2;exitX=0;exitY=0.5;exitDx=0;exitDy=0;exitPerimeter=0;" parent="1" edge="1">
          <mxGeometry width="50" height="50" relative="1" as="geometry">
            <mxPoint x="249.5" y="560" as="sourcePoint" />
            <mxPoint x="249.5" y="520" as="targetPoint" />
          </mxGeometry>
        </mxCell>
        <mxCell id="Wk8KGpnJFXNVMbtwx-w3-83" value="" style="endArrow=none;dashed=1;html=1;dashPattern=1 3;strokeWidth=2;exitX=0;exitY=0.5;exitDx=0;exitDy=0;exitPerimeter=0;" parent="1" edge="1">
          <mxGeometry width="50" height="50" relative="1" as="geometry">
            <mxPoint x="449.5" y="560" as="sourcePoint" />
            <mxPoint x="449.5" y="520" as="targetPoint" />
          </mxGeometry>
        </mxCell>
        <mxCell id="Wk8KGpnJFXNVMbtwx-w3-84" value="client" style="rounded=1;whiteSpace=wrap;html=1;shadow=0;fillColor=#ffffff;" parent="1" vertex="1">
          <mxGeometry x="205" y="30" width="110" height="30" as="geometry" />
        </mxCell>
        <mxCell id="Wk8KGpnJFXNVMbtwx-w3-85" value="vpr server" style="rounded=1;whiteSpace=wrap;html=1;shadow=0;fillColor=#ffffff;" parent="1" vertex="1">
          <mxGeometry x="400" y="30" width="110" height="30" as="geometry" />
        </mxCell>
      </root>
    </mxGraphModel>
  </diagram>
</mxfile>
